<?xml version="1.0" encoding="utf-8"?>
<!-- Generator: Adobe Illustrator 28.1.0, SVG Export Plug-In . SVG Version: 6.00 Build 0)  -->
<svg version="1.1" id="Layer_1" xmlns="http://www.w3.org/2000/svg" xmlns:xlink="http://www.w3.org/1999/xlink" x="0px" y="0px"
	 viewBox="0 0 428.8 429.9" style="enable-background:new 0 0 428.8 429.9;" xml:space="preserve">
<style type="text/css">
	.st0{fill:#FFFFFF;}
	.st1{fill:#FAA223;}
	.st2{fill:#162B53;}
</style>
<g>
	<g>
		<path class="st2" d="M333.5,255.6c-0.2-0.1-0.3-0.2-0.4-0.2C333.1,255.5,333.3,255.5,333.5,255.6z"/>
		<path class="st2" d="M333.1,255.4C333,255.3,333,255.4,333.1,255.4L333.1,255.4z"/>
		<path class="st2" d="M347.8,244.7c-4.2,0-6.4-1.8-10.5-5.5c-4.8-4.2-11.3-10-22.7-10c-11.4,0-17.9,5.8-22.7,10
			c-4.2,3.7-6.4,5.5-10.5,5.5c-4.2,0-6.4-1.8-10.5-5.5c-4.8-4.2-11.3-10-22.7-10c-11.4,0-17.9,5.8-22.7,10
			c-4.2,3.7-6.4,5.5-10.5,5.5V71.6c-0.1,0-0.3,0-0.4,0c-0.1,0-0.2,0-0.2,0c-11.5,0.1-20.7,9.8-20.7,21.3v263.6
			c4.7,0.7,9.4,1.2,14.3,1.5c2.4,0.1,4.7,0.2,7.1,0.2v-17.9c10.1,0,16-5.2,20.7-9.3c4.2-3.7,6.9-6.1,12.6-6.1s8.4,2.4,12.6,6.1
			c4.7,4.2,10.5,9.3,20.7,9.3c0,0,0,0,0,0c2,0,3.9-0.6,5.7-1.6c13-7.6,24.7-17.1,34.7-28.3c-2.1-0.5-4.5-0.8-7.1-0.8
			c-11.4,0-17.9,5.8-22.7,10c-4.2,3.7-6.4,5.5-10.5,5.5s-6.4-1.8-10.5-5.5c-4.8-4.2-11.3-10-22.7-10c-11.4,0-17.9,5.8-22.7,10
			c-4.2,3.7-6.4,5.5-10.5,5.5v-24.9c10.1,0,16-5.2,20.7-9.3c4.2-3.7,6.9-6.1,12.6-6.1c5.6,0,8.4,2.4,12.6,6.1
			c4.7,4.2,10.5,9.3,20.7,9.3s16-5.2,20.7-9.3c4.2-3.7,6.9-6.1,12.6-6.1c3,0,5.1,0.7,7.1,1.8c0.2,0.1,0.4,0.2,0.6,0.3
			c2.4,1.4,10.9,9.3,18.5-4.9c0,0,0,0,0,0c2.1-3.8,4.2-8.6,4.2-8.6c-6.4,5.4-11.4,2.7-12.7,1.9c-0.1-0.1-0.2-0.1-0.2-0.2
			c0,0-0.1,0-0.1,0s0,0,0,0c-4.2-3-9.7-5.6-17.4-5.6c-11.4,0-17.9,5.8-22.7,10c-4.2,3.7-6.4,5.5-10.5,5.5c-4.2,0-6.4-1.8-10.5-5.5
			c-4.8-4.2-11.3-10-22.7-10c-11.4,0-17.9,5.8-22.7,10c-4.2,3.7-6.4,5.5-10.5,5.5V260c10.1,0,16-5.2,20.7-9.3
			c4.2-3.7,6.9-6.1,12.6-6.1c5.6,0,8.4,2.4,12.6,6.1c4.7,4.2,10.5,9.3,20.7,9.3s16-5.2,20.7-9.3c4.2-3.7,6.9-6.1,12.6-6.1
			s8.4,2.4,12.6,6.1c1.9,1.7,4,3.5,6.5,5.1c0.1,0.1,0.3,0.2,0.5,0.3c-0.2-0.1-0.3-0.2-0.5-0.3c0.5,0.3,1.1,0.7,1.6,1
			c4.7,2.7,11.3,2,14.9-2.3c4.1-4.9,4.8-13.7,5-14.3C352.5,242.3,351,244.7,347.8,244.7z M334.4,256.2c0.2,0.1,0.4,0.3,0.7,0.4
			C334.9,256.5,334.7,256.4,334.4,256.2z"/>
		<path class="st2" d="M333.5,255.6c0.1,0,0.2,0.1,0.3,0.2c0,0,0,0,0,0C333.6,255.7,333.5,255.7,333.5,255.6z"/>
		<path class="st2" d="M140.5,113.6v223.7c6.8,4.1,13.9,7.7,21.4,10.7V81.8c-0.1,0-0.1,0.1-0.2,0.1
			C148.8,87.1,140.5,99.7,140.5,113.6z"/>
		<path class="st2" d="M71.6,213.9v2.5c0.3,36.3,14.3,69.6,37.2,94.8V118.6c-21.5,23.7-35.3,54.7-37,89.2
			C71.7,209.9,71.7,211.9,71.6,213.9z"/>
	</g>
	<g>
		<circle class="st1" cx="253.2" cy="192.1" r="26.9"/>
		<g>
			<path class="st1" d="M303.6,174.7l31.3-13.5l0,0c-1.7-4.1-6.4-5.9-10.5-4.2l-31.3,13.5v0C294.9,174.5,299.6,176.4,303.6,174.7z"
				/>
			<path class="st1" d="M257,77.7L257,77.7c-4-1.2-8,1.7-8,5.9v63.3h1.9c3.4,0,6.1-2.8,6.1-6.1V77.7z"/>
			<path class="st1" d="M282.2,157.2l0.5,0.5c2.9,2.9,7.5,2.9,10.4,0l33.2-33.2l-0.1-0.1c-2.8-3.3-7.7-3.5-10.7-0.5L282.2,157.2z"/>
			<path class="st1" d="M349.1,188.1h-50.7v0c0,4.4,3.6,8,8,8h50.8c-0.1-0.4-0.1-0.9-0.2-1.3C356.3,190.9,353,188.1,349.1,188.1z"/>
			<path class="st1" d="M266,148.5L266,148.5c4.1,1.6,8.8-0.4,10.4-4.5l12.7-31.7l0,0c-4.1-1.6-8.8,0.4-10.4,4.5L266,148.5z"/>
		</g>
	</g>
</g>
</svg>
